<?xml version="1.0" encoding="UTF-8"?>
<!-- Created with Inkscape (http://www.inkscape.org/) -->
<svg width="24" height="24" version="1.1" viewBox="0 0 6.3499 6.3499" xmlns="http://www.w3.org/2000/svg">
 <path d="m5.6392 0.81629c-0.032389 0.00201-0.064464 0.0087-0.096166 0.020479-0.07231 0.026868-0.80945 0.8618-1.7159 1.9429-0.87409 1.0426-1.6125 1.893-1.6402 1.8895-0.027624-0.0035823-0.29134-0.27458-0.58679-0.60193-0.29545-0.32735-0.58392-0.63581-0.64111-0.68563-0.24322-0.21187-0.66248-0.0085638-0.66248 0.32144 0 0.12887 0.11675 0.28878 0.63398 0.86817 1.0109 1.1324 1.0868 1.2039 1.2591 1.2021 0.083511-9.404e-4 0.18833-0.029434 0.23329-0.064111v-8.905e-4c0.2013-0.15525 3.6703-4.3483 3.6703-4.4361 0-0.25791-0.22739-0.47006-0.45412-0.4559z" fill="#f8dad0" stroke-linecap="round" stroke-linejoin="round" stroke-width=".52764" style="paint-order:stroke markers fill"/>
</svg>
